<svg xmlns="http://www.w3.org/2000/svg" viewBox="0 0 800 500" role="img" aria-label="Geometric illustration of ray traced spheres">
  <rect width="800" height="500" fill="#0d0e12"/>
  <g stroke="#ffffff" stroke-opacity="0.05">
    <path d="M100 0V500M200 0V500M300 0V500M400 0V500M500 0V500M600 0V500M700 0V500"/>
    <path d="M0 100H800M0 200H800M0 300H800M0 400H800"/>
  </g>
  <line x1="0" y1="382" x2="800" y2="382" stroke="#ffffff" stroke-opacity="0.25"/>
  <ellipse cx="500" cy="384" rx="118" ry="8" fill="#000000" opacity="0.55"/>
  <ellipse cx="285" cy="384" rx="54" ry="6" fill="#000000" opacity="0.55"/>
  <circle cx="500" cy="260" r="120" fill="#ffffff" fill-opacity="0.03" stroke="#ffffff" stroke-opacity="0.85" stroke-width="1.5"/>
  <circle cx="460" cy="215" r="26" fill="none" stroke="#ffffff" stroke-opacity="0.25"/>
  <circle cx="285" cy="332" r="50" fill="#ff2200"/>
  <circle cx="270" cy="316" r="10" fill="#ffffff" fill-opacity="0.35"/>
  <g stroke="#ffffff" stroke-opacity="0.65" stroke-width="1.2">
    <path d="M30 42 L410 180" fill="none"/>
    <path d="M410 180 L640 52" fill="none"/>
    <path d="M410 180 L560 380" fill="none" stroke-dasharray="4 6" stroke-opacity="0.35"/>
    <path d="M28 152 L245 300" fill="none"/>
    <path d="M245 300 L150 118" fill="none" stroke-dasharray="4 6" stroke-opacity="0.35"/>
  </g>
  <g stroke="#ff2200" stroke-width="1.2">
    <path d="M410 180 L385 147" fill="none"/>
    <path d="M245 300 L215 278" fill="none"/>
  </g>
  <rect x="40" y="436" width="9" height="9" fill="#ff2200"/>
  <text x="62" y="445" font-family="'Geist Mono', ui-monospace, Menlo, monospace" font-size="15" letter-spacing="4" fill="#ffffff" fill-opacity="0.5">FIG. 01 — PATH TRACING</text>
</svg>
